<svg width="50px" height="50px" viewBox="0 0 50 50" role="img" xmlns="http://www.w3.org/2000/svg"><path d="M28.09 0a2.854 2.854 0 0 0 -2.002 0.913L14.825 12.971l-8.029 8.596a11.042 11.042 0 0 0 -2.519 4.383 10.417 10.417 0 0 0 -0.26 1.069 11.458 11.458 0 0 0 0.129 4.921 12.5 12.5 0 0 0 0.727 2.119 12.292 12.292 0 0 0 2.648 3.788l8.91 8.735 0.081 0.079c4.683 4.51 12.192 4.444 16.798 -0.154l4.992 -4.983c1.125 -1.125 1.125 -2.946 0.006 -4.073a2.875 2.875 0 0 0 -4.065 -0.006l-4.992 4.983a6.292 6.292 0 0 1 -8.76 0.079l-0.042 -0.04 -8.908 -8.735c-1.358 -1.333 -2.025 -3.06 -1.975 -4.715a5.625 5.625 0 0 1 0.138 -1.09 5.313 5.313 0 0 1 1.29 -2.425L19.021 16.904c2.204 -2.362 6.675 -2.646 9.229 -0.579l7.294 5.898c1.235 1 3.044 0.806 4.042 -0.431a2.883 2.883 0 0 0 -0.431 -4.048l-7.292 -5.898c-1.667 -1.348 -3.679 -2.177 -5.779 -2.504l4.198 -4.496A2.883 2.883 0 0 0 28.09 0m-5.971 26.698a2.875 2.875 0 0 0 -2.875 2.879 2.875 2.875 0 0 0 2.875 2.879H43.313a2.875 2.875 0 0 0 2.875 -2.879 2.875 2.875 0 0 0 -2.875 -2.879z"/></svg>